<svg width="138" height="39" viewBox="0 0 138 39" fill="none" xmlns="http://www.w3.org/2000/svg">
<path d="M0.540513 37.4729C0.49547 37.518 0.450427 37.5405 0.405385 37.5405C0.270256 37.5405 0.202692 37.3378 0.202692 36.9324C0.202692 36.6622 0.270256 36.3919 0.405385 36.1217C0.585556 35.8064 0.900855 35.6262 1.35128 35.5812C2.61248 35.4911 3.80611 35.0632 4.93218 34.2974C6.05825 33.5317 7.04919 32.6309 7.905 31.5949C8.76081 30.5138 9.36889 29.5004 9.72923 28.5545L15.9451 13.0147C16.8009 10.8977 17.7694 8.84829 18.8504 6.86641C19.9765 4.88453 21.3953 3.26299 23.1069 2.00179C24.8636 0.740598 27.0707 0.11 29.7282 0.11C30.7642 0.11 31.8002 0.245128 32.8362 0.515383C33.9172 0.740597 34.818 1.12346 35.5387 1.66397C36.2594 2.20449 36.6197 2.97021 36.6197 3.96115C36.6197 4.09628 36.6197 4.23141 36.6197 4.36654C36.6197 4.50167 36.5972 4.63679 36.5522 4.77192C36.4171 5.49261 36.0117 6.21329 35.336 6.93397C34.7054 7.65466 34.21 8.55551 33.8496 9.63654C33.8046 9.95184 33.6019 10.1095 33.2415 10.1095C32.9262 10.1095 32.8587 9.90679 33.0388 9.50141C33.3992 8.9609 33.6694 8.3303 33.8496 7.60961C34.0748 6.84389 34.1874 6.07816 34.1874 5.31244C34.1874 4.14132 33.9172 3.10534 33.3767 2.20448C32.8362 1.30363 31.9128 0.853204 30.6065 0.853204C29.4354 0.853204 28.2418 1.19102 27.0256 1.86666C25.8095 2.54231 24.751 3.71342 23.8501 5.38L11.3508 28.4194C10.1797 30.5814 9.09863 32.1354 8.10769 33.0813C7.1618 33.9821 6.37355 34.5452 5.74295 34.7704H22.0259C24.1879 34.7704 26.1924 34.7028 28.0391 34.5677C29.8859 34.4326 31.0119 34.0947 31.4173 33.5542C31.8677 32.9236 32.093 32.248 32.093 31.5273C32.093 30.4012 31.4849 29.5679 30.2687 29.0274C30.1336 28.9374 30.066 28.8473 30.066 28.7572C30.066 28.6671 30.1111 28.577 30.2012 28.4869C30.3363 28.3968 30.4939 28.3968 30.6741 28.4869C31.0795 28.6671 31.5524 29.0725 32.093 29.7031C32.6785 30.2886 33.219 30.9418 33.7145 31.6624C34.21 32.3381 34.5253 32.8786 34.6604 33.284C34.7955 33.6894 34.8631 34.0947 34.8631 34.5001C34.8631 36.3469 33.2641 37.2703 30.066 37.2703C27.5436 37.2703 24.8411 37.1802 21.9583 37C19.0756 36.8198 16.2154 36.6171 13.3777 36.3919C10.585 36.1667 7.95004 36.0091 5.47269 35.919C4.52679 35.8289 3.5809 35.964 2.635 36.3244C1.73415 36.6397 1.03598 37.0225 0.540513 37.4729ZM48.435 37.2027C47.9846 37.2027 47.6017 37.1126 47.2864 36.9324C46.9711 36.7523 46.8135 36.4144 46.8135 35.919C46.8135 35.2884 46.9711 34.5677 47.2864 33.7569C47.6017 32.9462 47.9621 32.1579 48.3675 31.3922C48.7728 30.5814 49.1332 29.9283 49.4485 29.4328C47.872 31.0994 46.2279 32.6759 44.5163 34.1623C43.6605 34.883 42.7146 35.5586 41.6786 36.1892C40.6426 36.8198 39.5391 37.1351 38.368 37.1351C37.9175 37.1351 37.6022 37 37.4221 36.7297C37.2419 36.4144 37.1518 36.0541 37.1518 35.6487C37.1518 35.4235 37.1743 35.2659 37.2194 35.1758C37.4446 33.4191 38.0076 31.5949 38.9085 29.7031C39.8093 27.8113 40.9129 26.0321 42.2191 24.3655C43.5254 22.6989 44.8541 21.3476 46.2054 20.3117C47.7369 19.1406 49.426 18.555 51.2727 18.555H59.0426C59.2678 18.555 59.3804 18.6451 59.3804 18.8253C59.3804 19.1856 59.1777 19.3658 58.7723 19.3658C58.3219 19.3658 57.8715 19.6585 57.421 20.2441C56.9706 20.7846 56.6328 21.235 56.4076 21.5954C56.0923 22.0909 55.5968 22.9241 54.9212 24.0953C54.2455 25.2664 53.5474 26.5501 52.8267 27.9464C52.151 29.2977 51.5655 30.5589 51.07 31.73C50.5745 32.9011 50.3268 33.7569 50.3268 34.2974C50.3268 34.928 50.6421 35.2433 51.2727 35.2433C51.9484 35.2433 52.7141 34.928 53.5699 34.2974C54.4257 33.6668 55.2815 32.9011 56.1373 32.0003C57.0382 31.0544 57.8489 30.131 58.5696 29.2301C59.3354 28.2842 59.9434 27.541 60.3939 27.0005C60.6641 27.2708 60.6416 27.6536 60.3263 28.1491C60.056 28.5995 59.8083 28.9599 59.5831 29.2301C58.6822 30.4012 57.6463 31.6174 56.4751 32.8786C55.304 34.0947 54.0203 35.1307 52.624 35.9865C51.2727 36.7973 49.8764 37.2027 48.435 37.2027ZM41.1381 34.8379C41.6786 34.8379 42.4218 34.4551 43.3677 33.6894C44.3586 32.8786 45.4172 31.8876 46.5432 30.7165C47.6693 29.5004 48.7278 28.2392 49.7187 26.9329C50.7097 25.5817 51.5204 24.3655 52.151 23.2845C52.8267 22.1584 53.1645 21.3026 53.1645 20.7171C53.1645 20.2216 53.0069 19.8838 52.6916 19.7036C52.4213 19.5234 52.061 19.4333 51.6105 19.4333C50.8898 19.4333 50.1016 19.7036 49.2458 20.2441C48.435 20.7396 47.7819 21.235 47.2864 21.7305C46.7459 22.226 46.0928 23.0142 45.3271 24.0953C44.6064 25.1312 43.8857 26.2798 43.165 27.541C42.4443 28.8022 41.8363 30.0184 41.3408 31.1895C40.8453 32.3606 40.5976 33.3065 40.5976 34.0272C40.5976 34.5677 40.7778 34.8379 41.1381 34.8379Z" fill="#012C1A"/>
<path d="M57.5525 38.2837C57.2372 38.2837 56.9894 38.1936 56.8093 38.0135C56.6291 37.8783 56.6291 37.7657 56.8093 37.6756C57.8002 37.4955 58.656 37.1351 59.3767 36.5946C60.0974 36.0091 60.6829 35.2884 61.1334 34.4326C62.0793 32.8561 63.0026 31.2796 63.9035 29.7031C64.8044 28.0815 65.6827 26.46 66.5385 24.8385L73.0247 12.8796C74.0606 11.0329 74.9615 9.25367 75.7272 7.54205C76.538 5.83043 77.1686 4.59175 77.619 3.82602C77.9343 3.24047 78.4748 2.72248 79.2406 2.27205C80.0513 1.77658 80.8396 1.39372 81.6053 1.12346C81.335 1.12346 81.0648 1.12346 80.7945 1.12346C80.5243 1.07842 80.2315 1.0559 79.9162 1.0559C78.5199 1.0559 76.9884 1.14598 75.3218 1.32615C73.7003 1.46128 72.1013 1.68649 70.5248 2.00179C68.9933 2.31709 67.6421 2.745 66.4709 3.28551C65.2998 3.82602 64.5116 4.47914 64.1062 5.24487C63.926 5.65025 63.7684 6.05564 63.6332 6.46102C63.4981 6.86641 63.4306 7.27179 63.4306 7.67718C63.4306 8.71316 63.7909 9.45637 64.5116 9.90679C64.5566 9.90679 64.5791 9.95184 64.5791 10.0419C64.5791 10.132 64.4891 10.2221 64.3089 10.3122C64.1738 10.4023 64.0386 10.4248 63.9035 10.3797C63.4981 10.1545 63.0026 9.61402 62.4171 8.7582C61.8315 7.85735 61.4712 7.11414 61.3361 6.52859C61.2009 5.98807 61.1334 5.49261 61.1334 5.04218C61.1334 3.87107 61.5162 2.97021 62.282 2.33961C63.0477 1.66397 64.0161 1.19103 65.1872 0.920767C66.3583 0.605469 67.552 0.425298 68.7681 0.380253C70.0293 0.290169 71.1329 0.245126 72.0788 0.245126C73.5201 0.245126 75.2318 0.245126 77.2136 0.245126C79.1955 0.200084 81.0197 0.177563 82.6863 0.177563C83.0917 0.177563 83.5421 0.177563 84.0376 0.177563C84.5331 0.132521 85.0511 0.11 85.5916 0.11C86.8077 0.11 88.0689 0.177563 89.3752 0.31269C90.6814 0.447819 91.875 0.740597 92.9561 1.19102C94.0371 1.64145 94.8704 2.33961 95.4559 3.28551C96.0415 4.27645 96.3343 5.35748 96.3343 6.52859C96.3343 7.65466 96.1091 8.78072 95.6586 9.90679C95.2082 11.0329 94.6677 12.0013 94.0371 12.8121C93.6317 13.3075 93.1588 13.803 92.6182 14.2985C92.0777 14.7939 91.4697 15.2669 90.794 15.7173C90.1184 16.1677 89.3752 16.5956 88.5644 17.001C87.7987 17.3614 86.8753 17.6541 85.7943 17.8794C85.7492 17.8794 85.7042 17.9469 85.6591 18.0821C85.6591 18.2172 85.7042 18.2847 85.7943 18.2847C86.0195 18.3298 86.4024 18.3973 86.9429 18.4874C87.5284 18.5325 88.0464 18.6 88.4968 18.6901C90.0733 19.0054 91.3796 19.6811 92.4156 20.7171C93.4966 21.708 94.0371 23.0593 94.0371 24.7709C94.0371 26.7077 93.5191 28.4869 92.4831 30.1085C91.4922 31.73 90.2085 33.1263 88.632 34.2974C87.0555 35.4235 85.4114 36.3018 83.6998 36.9324C81.5377 37.7432 79.0604 38.1486 76.2677 38.1486C74.6012 38.1486 72.867 37.9909 71.0653 37.6756C69.2636 37.3603 67.6195 36.8198 66.1331 36.0541C65.8178 35.8739 65.5025 35.7388 65.1872 35.6487C64.8719 35.5136 64.5341 35.446 64.1738 35.446C63.5432 35.446 62.8675 35.6262 62.1468 35.9865C61.6964 36.1667 61.1109 36.5045 60.3902 37C59.6695 37.4955 58.8587 37.9009 57.9579 38.2162C57.8678 38.2612 57.7326 38.2837 57.5525 38.2837ZM74.1057 37.2027C75.2768 37.2027 76.4479 37.0901 77.619 36.8649C78.7901 36.5946 79.8486 36.2793 80.7945 35.919C82.4611 35.2884 83.9926 34.41 85.3889 33.284C86.7852 32.1129 87.9113 30.7391 88.7671 29.1626C89.6679 27.541 90.1184 25.7393 90.1184 23.7574C90.1184 22.4512 89.7806 21.4603 89.1049 20.7846C88.4293 20.0639 87.5735 19.5685 86.5375 19.2982C85.5015 19.0279 84.4205 18.8928 83.2944 18.8928C82.4386 18.8928 81.6278 18.9379 80.8621 19.0279C80.0964 19.118 79.3982 19.2306 78.7676 19.3658C77.5064 19.591 76.3803 19.8387 75.3894 20.109C75.2092 20.0189 75.2318 19.8612 75.457 19.636C75.6822 19.3658 75.975 19.073 76.3353 18.7577C76.7407 18.4424 77.056 18.1947 77.2812 18.0145C77.3713 17.9244 77.5515 17.7893 77.8217 17.6091C78.137 17.3839 78.3847 17.2713 78.5649 17.2713C80.772 17.2713 82.7314 17.1362 84.443 16.8659C86.1997 16.5956 87.7086 15.9425 88.9698 14.9065C90.231 13.8255 91.267 12.1589 92.0777 9.90679C92.4831 8.73568 92.6858 7.58709 92.6858 6.46102C92.6858 5.15478 92.3705 4.02872 91.7399 3.08282C91.1093 2.09188 90.0959 1.50632 88.6995 1.32615C88.5194 1.28111 88.3167 1.25859 88.0915 1.25859C87.8662 1.25859 87.641 1.25859 87.4158 1.25859C86.56 1.25859 85.6141 1.37119 84.5781 1.59641C83.5872 1.82162 82.844 2.24953 82.3485 2.88013C81.2224 4.36654 80.1414 6.05564 79.1054 7.94744C78.0694 9.79419 77.0785 11.686 76.1326 13.6228C75.1867 15.5146 74.2859 17.2938 73.43 18.9604C72.3941 20.9873 71.3356 23.0368 70.2545 25.1087C69.1735 27.1807 68.115 29.2752 67.079 31.3922C66.8088 31.9327 66.6736 32.4507 66.6736 32.9462C66.6736 33.847 67.2367 34.7253 68.3627 35.5812C69.1285 36.1667 70.0068 36.5946 70.9977 36.8649C72.0337 37.0901 73.0697 37.2027 74.1057 37.2027ZM100.896 37.5405C99.0497 37.5405 97.766 37.1802 97.0453 36.4595C96.3246 35.7388 95.9643 34.8605 95.9643 33.8245C95.9643 32.5182 96.3021 31.1219 96.9777 29.6355C97.6984 28.1491 98.374 26.8879 99.0046 25.8519C99.7253 24.7709 100.694 23.6448 101.91 22.4737C103.126 21.3026 104.455 20.3117 105.896 19.5009C107.338 18.6901 108.734 18.2847 110.085 18.2847C111.256 18.2847 112.067 18.5775 112.517 19.1631C112.968 19.7036 113.193 20.3567 113.193 21.1224C113.193 22.5188 112.765 23.6673 111.909 24.5682C111.099 25.4691 110.085 26.2123 108.869 26.7978C107.653 27.3383 106.482 27.7888 105.356 28.1491C104.68 28.3293 103.892 28.5094 102.991 28.6896C102.09 28.8698 101.234 28.9599 100.423 28.9599C100.108 29.7706 99.8605 30.5589 99.6803 31.3246C99.5001 32.0903 99.41 32.7885 99.41 33.4191C99.41 34.1848 99.5902 34.8154 99.9505 35.3109C100.356 35.8064 101.009 36.0541 101.91 36.0541C102.27 36.0541 102.698 36.0091 103.194 35.919C103.689 35.8289 104.23 35.6938 104.815 35.5136C106.166 35.0632 107.495 34.3425 108.801 33.3515C110.108 32.3606 111.301 31.3021 112.382 30.176C113.508 29.0049 114.364 28.0365 114.95 27.2708C115.085 27.4059 115.152 27.5635 115.152 27.7437C115.152 27.9689 114.995 28.3293 114.68 28.8247C113.779 30.0859 112.608 31.3922 111.166 32.7435C109.725 34.0947 108.126 35.2433 106.369 36.1892C104.612 37.0901 102.788 37.5405 100.896 37.5405ZM100.964 27.6086C101.55 27.6536 102.203 27.6536 102.923 27.6086C103.689 27.5185 104.432 27.3609 105.153 27.1356C107 26.5951 108.328 25.7393 109.139 24.5682C109.995 23.3521 110.423 22.271 110.423 21.3251C110.423 20.7846 110.31 20.3342 110.085 19.9738C109.86 19.6135 109.5 19.4333 109.004 19.4333C107.698 19.4333 106.527 19.9288 105.491 20.9197C104.455 21.8656 103.554 22.9692 102.788 24.2304C102.023 25.4916 101.414 26.6176 100.964 27.6086ZM114.276 38.0135C114.096 38.0135 114.096 37.8108 114.276 37.4054C114.501 37 114.704 36.5496 114.884 36.0541C115.109 35.5586 115.334 35.0181 115.559 34.4326C116.01 33.3515 116.505 32.1354 117.046 30.7841C117.586 29.4328 118.104 28.1266 118.6 26.8654C119.095 25.5591 119.523 24.4556 119.884 23.5547C120.289 22.6088 120.559 22.0008 120.694 21.7305C120.064 22.4062 119.298 23.262 118.397 24.2979C117.541 25.2889 116.731 26.2573 115.965 27.2032C115.199 28.1491 114.614 28.8923 114.208 29.4328C114.073 29.613 113.96 29.7031 113.87 29.7031C113.78 29.7031 113.735 29.5905 113.735 29.3653C113.735 29.0049 113.848 28.6671 114.073 28.3518C114.929 27.2708 115.875 26.0546 116.911 24.7033C117.992 23.3521 118.96 22.1134 119.816 20.9873C120.672 19.8162 121.212 19.0505 121.438 18.6901C121.933 18.6 122.654 18.4649 123.6 18.2847C124.59 18.1046 125.266 17.8568 125.626 17.5415C125.762 17.4064 125.897 17.3388 126.032 17.3388C126.122 17.3388 126.167 17.4289 126.167 17.6091C126.212 17.7442 126.167 17.9019 126.032 18.0821C125.762 18.3974 125.289 19.1406 124.613 20.3117C123.982 21.4377 123.284 22.6989 122.519 24.0953C121.798 25.4916 121.122 26.7528 120.492 27.8788C121.032 27.1582 121.618 26.46 122.248 25.7844C122.879 25.1087 123.487 24.4556 124.073 23.825C124.613 23.2845 125.356 22.6088 126.302 21.7981C127.248 20.9873 128.239 20.2441 129.275 19.5685C130.311 18.8928 131.212 18.51 131.978 18.4199C132.158 18.3748 132.315 18.3523 132.45 18.3523C132.631 18.3523 132.766 18.3523 132.856 18.3523C133.847 18.3523 134.342 18.7126 134.342 19.4333C134.342 19.9738 134.049 20.6945 133.464 21.5954C133.149 22.0909 132.653 22.9241 131.978 24.0953C131.347 25.2213 130.694 26.46 130.018 27.8113C129.388 29.1175 128.825 30.3562 128.329 31.5273C127.879 32.6534 127.653 33.4867 127.653 34.0272C127.653 34.6578 127.969 34.9731 128.599 34.9731C129.365 34.9731 130.198 34.5902 131.099 33.8245C132.045 33.0588 133.059 32.0903 134.14 30.9192C135.221 29.7031 136.302 28.4194 137.383 27.0681C137.473 27.1582 137.518 27.3158 137.518 27.541C137.518 27.8563 137.405 28.1716 137.18 28.4869C137 28.7572 136.82 29.0049 136.639 29.2301C136.189 29.8157 135.581 30.5589 134.815 31.4597C134.095 32.3156 133.351 33.1714 132.586 34.0272C131.82 34.8379 131.122 35.4911 130.491 35.9865C130.041 36.3018 129.455 36.6397 128.734 37C128.014 37.3603 127.293 37.5405 126.572 37.5405C125.762 37.5405 125.199 37.3378 124.883 36.9324C124.568 36.482 124.41 35.9415 124.41 35.3109C124.41 34.5902 124.545 33.8245 124.816 33.0137C125.086 32.2029 125.379 31.4372 125.694 30.7165C126.054 29.9508 126.325 29.3878 126.505 29.0274C127.316 27.4509 128.059 25.9645 128.734 24.5682C129.41 23.1719 129.883 22.1809 130.153 21.5954C130.288 21.3251 130.356 21.0999 130.356 20.9197C130.356 20.6044 130.108 20.5819 129.613 20.8522C129.117 21.1224 128.509 21.5278 127.789 22.0683C127.113 22.6088 126.482 23.1494 125.897 23.6899C125.311 24.1853 124.928 24.5232 124.748 24.7033C123.082 26.46 121.618 28.4194 120.356 30.5814C119.14 32.6984 118.104 34.883 117.249 37.1351C116.663 37.1802 116.077 37.3378 115.492 37.6081C114.906 37.8783 114.501 38.0135 114.276 38.0135Z" fill="#EECD33"/>
</svg>
