<svg width="72" height="72" viewBox="0 0 72 72" fill="none" xmlns="http://www.w3.org/2000/svg">
<circle cx="36" cy="36" r="36" fill="#3C8566"/>
<path d="M46 42.9201V45.9201C46.0011 46.1986 45.9441 46.4743 45.8325 46.7294C45.7209 46.9846 45.5573 47.2137 45.3521 47.402C45.1468 47.5902 44.9046 47.7336 44.6407 47.8228C44.3769 47.912 44.0974 47.9452 43.82 47.9201C40.7428 47.5857 37.787 46.5342 35.19 44.8501C32.7738 43.3148 30.7253 41.2663 29.19 38.8501C27.5 36.2413 26.4482 33.2711 26.12 30.1801C26.095 29.9036 26.1279 29.6249 26.2165 29.3617C26.3051 29.0986 26.4476 28.8568 26.6348 28.6517C26.822 28.4466 27.0498 28.2828 27.3038 28.1706C27.5578 28.0584 27.8323 28.0004 28.11 28.0001H31.11C31.5953 27.9953 32.0658 28.1672 32.4338 28.4836C32.8017 28.8001 33.0421 29.2395 33.11 29.7201C33.2366 30.6802 33.4714 31.6228 33.81 32.5301C33.9445 32.888 33.9737 33.277 33.8939 33.651C33.8141 34.0249 33.6289 34.3682 33.36 34.6401L32.09 35.9101C33.5135 38.4136 35.5864 40.4865 38.09 41.9101L39.36 40.6401C39.6319 40.3712 39.9751 40.1859 40.3491 40.1062C40.7231 40.0264 41.1121 40.0556 41.47 40.1901C42.3773 40.5286 43.3199 40.7635 44.28 40.8901C44.7658 40.9586 45.2094 41.2033 45.5265 41.5776C45.8437 41.9519 46.0122 42.4297 46 42.9201Z" stroke="white" stroke-width="2" stroke-linecap="round" stroke-linejoin="round"/>
</svg>
