<svg width="72" height="72" viewBox="0 0 72 72" fill="none" xmlns="http://www.w3.org/2000/svg">
<circle cx="36" cy="36" r="36" fill="#3C8566"/>
<path d="M45 35C45 42 36 48 36 48C36 48 27 42 27 35C27 32.6131 27.9482 30.3239 29.636 28.636C31.3239 26.9482 33.6131 26 36 26C38.3869 26 40.6761 26.9482 42.364 28.636C44.0518 30.3239 45 32.6131 45 35Z" stroke="white" stroke-width="2" stroke-linecap="round" stroke-linejoin="round"/>
<path d="M36 38C37.6569 38 39 36.6569 39 35C39 33.3431 37.6569 32 36 32C34.3431 32 33 33.3431 33 35C33 36.6569 34.3431 38 36 38Z" stroke="white" stroke-width="2" stroke-linecap="round" stroke-linejoin="round"/>
</svg>
