<svg width="51" height="41" viewBox="0 0 51 41" fill="none" xmlns="http://www.w3.org/2000/svg">
<path d="M23.04 8.86C21.2067 10.2533 19.4833 12.0867 17.87 14.36C16.33 16.56 15.12 18.9433 14.24 21.51C14.46 21.4367 14.79 21.4 15.23 21.4C17.3567 21.4 19.1533 22.2433 20.62 23.93C22.16 25.5433 22.93 27.67 22.93 30.31C22.93 33.4633 21.8667 36.03 19.74 38.01C17.6867 39.9167 15.01 40.87 11.71 40.87C8.41 40.87 5.73333 39.7333 3.68 37.46C1.62667 35.1133 0.6 32.07 0.6 28.33C0.6 23.5633 2.03 18.6133 4.89 13.48C7.75 8.27333 11.4533 4.05666 16 0.829996L23.04 8.86ZM42.73 21.4C44.8567 21.4 46.6533 22.2433 48.12 23.93C49.66 25.5433 50.43 27.67 50.43 30.31C50.43 33.4633 49.3667 36.03 47.24 38.01C45.1867 39.9167 42.51 40.87 39.21 40.87C35.91 40.87 33.2333 39.7333 31.18 37.46C29.1267 35.1133 28.1 32.07 28.1 28.33C28.1 23.5633 29.53 18.6133 32.39 13.48C35.25 8.27333 38.9533 4.05666 43.5 0.829996L50.54 8.86C48.7067 10.2533 46.9833 12.0867 45.37 14.36C43.83 16.56 42.62 18.9433 41.74 21.51C41.96 21.4367 42.29 21.4 42.73 21.4Z" fill="#012C1A"/>
</svg>
